HIERARCHY
ROOT hip
{
  OFFSET 0.00112043 5.09927 -9.65472
  CHANNELS 6 Xposition Yposition Zposition Zrotation Xrotation Yrotation
  JOINT abdomen
  {
    OFFSET 0 -1.186 -1.5018
    CHANNELS 3 Zrotation Xrotation Yrotation
    JOINT abdomen2
    {
      OFFSET 0 9.964 0.2134
      CHANNELS 3 Zrotation Xrotation Yrotation
      JOINT chest
      {
        OFFSET 0 13.134 -3.2573
        CHANNELS 3 Zrotation Xrotation Yrotation
        JOINT neck
        {
          OFFSET 0 20.686 -1.6905
          CHANNELS 3 Zrotation Xrotation Yrotation
          JOINT head
          {
            OFFSET 0 7.238 -0.1237
            CHANNELS 3 Zrotation Xrotation Yrotation
            End Site
            {
              OFFSET 0 0 0
            }
          }
        }
        JOINT lCollar
        {
          OFFSET 1.7069 20.075 5.0056
          CHANNELS 3 Zrotation Xrotation Yrotation
          JOINT lShldr
          {
            OFFSET 13.6458 -0.047 -4.849
            CHANNELS 3 Zrotation Xrotation Yrotation
            JOINT lForeArm
            {
              OFFSET 28.3255 -0.9759 2.2888
              CHANNELS 3 Zrotation Xrotation Yrotation
              JOINT lHand
              {
                OFFSET 22.1583 -0.53 10.8316
                CHANNELS 3 Zrotation Xrotation Yrotation
                JOINT lThumb1
                {
                  OFFSET 0.786 0.112 2.5817
                  CHANNELS 3 Zrotation Xrotation Yrotation
                  JOINT lThumb2
                  {
                    OFFSET 0.3601 -0.878 4.2331
                    CHANNELS 3 Zrotation Xrotation Yrotation
                    JOINT lThumb2_End
                    {
                      OFFSET 1.8127 -1.216 2.2227
                      CHANNELS 3 Zrotation Xrotation Yrotation
                      End Site
                      {
                        OFFSET 0.0181 -0.0122 0.0222
                      }
                    }
                  }
                }
                JOINT lCarpal1
                {
                  OFFSET 0.9571 1.114 1.7695
                  CHANNELS 3 Zrotation Xrotation Yrotation
                  JOINT lIndex1
                  {
                    OFFSET 4.1246 0.487 4.1451
                    CHANNELS 3 Zrotation Xrotation Yrotation
                    JOINT lIndex2
                    {
                      OFFSET 3.4052 -1.454 2.7682
                      CHANNELS 3 Zrotation Xrotation Yrotation
                      JOINT lIndex2_End
                      {
                        OFFSET 1.4531 -1.795 1.2713
                        CHANNELS 3 Zrotation Xrotation Yrotation
                        End Site
                        {
                          OFFSET 0.0145 -0.0179 0.0127
                        }
                      }
                    }
                  }
                  JOINT lMid1
                  {
                    OFFSET 5.6954 0.21 2.1184
                    CHANNELS 3 Zrotation Xrotation Yrotation
                    JOINT lMid2
                    {
                      OFFSET 3.9766 -1.54 2.3863
                      CHANNELS 3 Zrotation Xrotation Yrotation
                      JOINT lMid2_End
                      {
                        OFFSET 1.4042 -1.926 1.125
                        CHANNELS 3 Zrotation Xrotation Yrotation
                        End Site
                        {
                          OFFSET 0.014 -0.0193 0.0113
                        }
                      }
                    }
                  }
                }
                JOINT lCarpal2
                {
                  OFFSET 2.0956 0.66 -0.3894
                  CHANNELS 3 Zrotation Xrotation Yrotation
                  JOINT lRing1
                  {
                    OFFSET 5.0395 -0.09 2.4971
                    CHANNELS 3 Zrotation Xrotation Yrotation
                    JOINT lRing2
                    {
                      OFFSET 3.7921 -1.552 1.4806
                      CHANNELS 3 Zrotation Xrotation Yrotation
                      JOINT lRing2_End
                      {
                        OFFSET 1.4655 -1.808 0.9609
                        CHANNELS 3 Zrotation Xrotation Yrotation
                        End Site
                        {
                          OFFSET 0.0147 -0.0181 0.0096
                        }
                      }
                    }
                  }
                  JOINT lPinky1
                  {
                    OFFSET 4.9141 -1.269 0.3591
                    CHANNELS 3 Zrotation Xrotation Yrotation
                    JOINT lPinky2
                    {
                      OFFSET 3.1477 -1.685 0.8462
                      CHANNELS 3 Zrotation Xrotation Yrotation
                      JOINT lPinky2_End
                      {
                        OFFSET 0.8055 -1.585 0.7955
                        CHANNELS 3 Zrotation Xrotation Yrotation
                        End Site
                        {
                          OFFSET 0.0081 -0.0158 0.008
                        }
                      }
                    }
                  }
                }
              }
            }
          }
        }
        JOINT rCollar
        {
          OFFSET -1.7069 20.075 5.0056
          CHANNELS 3 Zrotation Xrotation Yrotation
          JOINT rShldr
          {
            OFFSET -13.6458 -0.047 -4.849
            CHANNELS 3 Zrotation Xrotation Yrotation
            JOINT rForeArm
            {
              OFFSET -28.3255 -0.9759 2.2888
              CHANNELS 3 Zrotation Xrotation Yrotation
              JOINT rHand
              {
                OFFSET -22.1583 -0.53 10.8316
                CHANNELS 3 Zrotation Xrotation Yrotation
                JOINT rThumb1
                {
                  OFFSET -0.786 0.112 2.5817
                  CHANNELS 3 Zrotation Xrotation Yrotation
                  JOINT rThumb2
                  {
                    OFFSET -0.3601 -0.878 4.2331
                    CHANNELS 3 Zrotation Xrotation Yrotation
                    JOINT rThumb2_End
                    {
                      OFFSET -1.8127 -1.216 2.2227
                      CHANNELS 3 Zrotation Xrotation Yrotation
                      End Site
                      {
                        OFFSET -0.0181 -0.0122 0.0222
                      }
                    }
                  }
                }
                JOINT rCarpal1
                {
                  OFFSET -0.9571 1.114 1.7695
                  CHANNELS 3 Zrotation Xrotation Yrotation
                  JOINT rIndex1
                  {
                    OFFSET -4.1246 0.487 4.1451
                    CHANNELS 3 Zrotation Xrotation Yrotation
                    JOINT rIndex2
                    {
                      OFFSET -3.4052 -1.454 2.7682
                      CHANNELS 3 Zrotation Xrotation Yrotation
                      JOINT rIndex2_End
                      {
                        OFFSET -1.4531 -1.795 1.2713
                        CHANNELS 3 Zrotation Xrotation Yrotation
                        End Site
                        {
                          OFFSET -0.0145 -0.018 0.0127
                        }
                      }
                    }
                  }
                  JOINT rMid1
                  {
                    OFFSET -5.6954 0.21 2.1184
                    CHANNELS 3 Zrotation Xrotation Yrotation
                    JOINT rMid2
                    {
                      OFFSET -3.9766 -1.54 2.3863
                      CHANNELS 3 Zrotation Xrotation Yrotation
                      JOINT rMid2_End
                      {
                        OFFSET -1.4042 -1.926 1.125
                        CHANNELS 3 Zrotation Xrotation Yrotation
                        End Site
                        {
                          OFFSET -0.014 -0.0193 0.0113
                        }
                      }
                    }
                  }
                }
                JOINT rCarpal2
                {
                  OFFSET -2.0956 0.66 -0.3894
                  CHANNELS 3 Zrotation Xrotation Yrotation
                  JOINT rRing1
                  {
                    OFFSET -5.0395 -0.09 2.4971
                    CHANNELS 3 Zrotation Xrotation Yrotation
                    JOINT rRing2
                    {
                      OFFSET -3.7921 -1.552 1.4806
                      CHANNELS 3 Zrotation Xrotation Yrotation
                      JOINT rRing2_End
                      {
                        OFFSET -1.4655 -1.808 0.9609
                        CHANNELS 3 Zrotation Xrotation Yrotation
                        End Site
                        {
                          OFFSET -0.0147 -0.0181 0.0096
                        }
                      }
                    }
                  }
                  JOINT rPinky1
                  {
                    OFFSET -4.9141 -1.269 0.3592
                    CHANNELS 3 Zrotation Xrotation Yrotation
                    JOINT rPinky2
                    {
                      OFFSET -3.1477 -1.685 0.8462
                      CHANNELS 3 Zrotation Xrotation Yrotation
                      JOINT rPinky2_End
                      {
                        OFFSET -0.8055 -1.585 0.7955
                        CHANNELS 3 Zrotation Xrotation Yrotation
                        End Site
                        {
                          OFFSET -0.0081 -0.0158 0.008
                        }
                      }
                    }
                  }
                }
              }
            }
          }
        }
      }
    }
  }
  JOINT lThigh
  {
    OFFSET 8.367 -8.2066 0.5982
    CHANNELS 3 Zrotation Xrotation Yrotation
    JOINT lShin
    {
      OFFSET 2.1923 -43.463 -0.4932
      CHANNELS 3 Zrotation Xrotation Yrotation
      JOINT lFoot
      {
        OFFSET 0.7333 -45.8593 -2.6451
        CHANNELS 3 Zrotation Xrotation Yrotation
        End Site
        {
          OFFSET 2.6618 -4.2699 12.3931
        }
      }
    }
  }
  JOINT rThigh
  {
    OFFSET -8.367 -8.2066 0.5982
    CHANNELS 3 Zrotation Xrotation Yrotation
    JOINT rShin
    {
      OFFSET -2.1923 -43.463 -0.4931
      CHANNELS 3 Zrotation Xrotation Yrotation
      JOINT rFoot
      {
        OFFSET -0.7333 -45.8593 -2.6451
        CHANNELS 3 Zrotation Xrotation Yrotation
        End Site
        {
          OFFSET -2.6618 -4.2699 12.3931
        }
      }
    }
  }
}
MOTION
Frames:	4
Frame Time:	0.0333333
1.73992 49.0232 7.37826 0 14.7518 -0 -0.123502 6.63722 -0.409823 -0.200873 13.2752 -0.813408 -0.200873 13.2752 -0.813408 10.6295 -9.34948 1.53643 -1.97854e-006 -2.56071 5.09066e-007 -17.7043 -24.7686 -30.0883 -42.7837 -2.07599 -4.36977 -44.6638 32.4784 -21.6944 61.3363 4.32361 34.0119 6.49368e-007 -2.94852e-006 -1.49374e-006 -2.42177e-007 -2.52078e-006 2.21073e-006 3.24684e-007 -1.47426e-006 -7.4687e-007 2.38542e-015 0 1.59028e-015 6.49368e-007 -2.94852e-006 -1.49374e-006 -2.42177e-007 -2.52078e-006 2.21073e-006 3.24684e-007 -1.47426e-006 -7.4687e-007 6.49368e-007 -2.94852e-006 -1.49374e-006 -2.42177e-007 -2.52078e-006 2.21073e-006 3.24684e-007 -1.47426e-006 -7.4687e-007 2.38542e-015 0 1.59028e-015 6.49368e-007 -2.94852e-006 -1.49374e-006 -2.42177e-007 -2.52078e-006 2.21073e-006 3.24684e-007 -1.47426e-006 -7.4687e-007 6.49368e-007 -2.94852e-006 -1.49374e-006 -2.42177e-007 -2.52078e-006 2.21073e-006 3.24684e-007 -1.47426e-006 -7.4687e-007 16.4533 -25.4721 29.2303 43.9718 -1.89127 6.04622 41.3855 29.9456 20.3632 -55.4389 2.90447 -29.48 -6.79812e-006 1.3079e-006 2.60153e-006 7.15625e-015 -9.54166e-015 -0 5.59212e-006 -2.79774e-006 1.83009e-006 3.18055e-015 3.18055e-015 7.95139e-015 -6.79812e-006 1.3079e-006 2.60153e-006 7.95139e-015 0 -6.36111e-015 5.59212e-006 -2.79774e-006 1.83009e-006 -6.79812e-006 1.3079e-006 2.60153e-006 7.95139e-015 0 -6.36111e-015 5.59212e-006 -2.79774e-006 1.83009e-006 3.18055e-015 3.18055e-015 7.95139e-015 -6.79812e-006 1.3079e-006 2.60153e-006 7.95139e-015 0 -6.36111e-015 5.59212e-006 -2.79774e-006 1.83009e-006 -6.79812e-006 1.3079e-006 2.60153e-006 7.95139e-015 0 -6.36111e-015 5.59212e-006 -2.79774e-006 1.83009e-006 7.86936 -19.2488 16.2795 28.7357 86.6594 -24.7127 -24.4381 59.3937 34.3302 -8.00013 -19.2464 -16.4247 -30.3798 86.5761 26.3925 25.4189 60.2819 -35.2469 
1.73992 48.9796 7.25691 0 15.506 -0 -0.119731 6.3657 -0.41236 -0.194848 12.7321 -0.8189 -0.194848 12.7321 -0.8189 10.5723 -9.77715 1.60204 1.20789e-006 -3.76317 4.86711e-007 -17.8416 -24.484 -30.143 -42.7837 -2.07599 -4.36975 -44.3381 32.2234 -21.473 60.8754 4.21289 34.0416 -8.5248e-007 -1.34745e-006 4.44011e-006 -3.24663e-007 1.47423e-006 7.46882e-007 -3.5849e-006 9.59338e-007 9.0504e-007 -1.59028e-015 0 -0 -8.5248e-007 -1.34745e-006 4.44011e-006 -3.24663e-007 1.47423e-006 7.46882e-007 -3.5849e-006 9.59338e-007 9.0504e-007 -8.5248e-007 -1.34745e-006 4.44011e-006 -3.24663e-007 1.47423e-006 7.46882e-007 -3.5849e-006 9.59338e-007 9.0504e-007 -1.59028e-015 0 -0 -8.5248e-007 -1.34745e-006 4.44011e-006 -3.24663e-007 1.47423e-006 7.46882e-007 -3.5849e-006 9.59338e-007 9.0504e-007 -8.5248e-007 -1.34745e-006 4.44011e-006 -3.24663e-007 1.47423e-006 7.46882e-007 -3.5849e-006 9.59338e-007 9.0504e-007 16.5901 -25.1929 29.2821 43.9718 -1.89127 6.04622 41.0431 29.6936 20.1101 -54.9793 2.86178 -29.4814 -7.95139e-015 0 -3.18055e-015 3.29057e-007 1.48064e-006 -7.34902e-007 -7.95139e-016 6.36111e-015 1.59028e-015 -7.95139e-015 -3.18055e-015 -3.18055e-015 0 6.36111e-015 -0 3.29057e-007 1.48064e-006 -7.34902e-007 -2.38542e-015 3.18055e-015 4.77083e-015 0 6.36111e-015 -0 3.29057e-007 1.48064e-006 -7.34902e-007 -2.38542e-015 3.18055e-015 4.77083e-015 -7.95139e-015 -3.18055e-015 -3.18055e-015 0 6.36111e-015 -0 3.29057e-007 1.48064e-006 -7.34902e-007 -2.38542e-015 3.18055e-015 4.77083e-015 0 6.36111e-015 -0 3.29057e-007 1.48064e-006 -7.34902e-007 -2.38542e-015 3.18055e-015 4.77083e-015 7.98345 -20.2979 16.4882 31.9565 86.9206 -27.9162 -24.4636 59.4114 34.3621 -8.11416 -20.2958 -16.6338 -33.6477 86.8328 29.6427 25.4458 60.2991 -35.2801 
1.73992 48.9352 7.13495 0 16.2601 -0 -0.11596 6.0942 -0.414846 -0.188865 12.1891 -0.824264 -0.188865 12.1891 -0.824264 10.5156 -10.205 1.6673 1.22638e-006 -4.96724 -6.72353e-007 -17.9784 -24.1993 -30.1967 -42.7837 -2.07598 -4.36977 -44.0122 31.9695 -21.2506 60.4147 4.10195 34.0705 -2.06086e-006 -6.29635e-007 -4.2582e-006 3.27302e-006 -8.24947e-007 -1.84e-007 -2.06086e-006 -6.29635e-007 -4.2582e-006 -2.38542e-015 0 -4.77083e-015 -2.06086e-006 -6.29635e-007 -4.2582e-006 3.27302e-006 -8.24947e-007 -1.84e-007 -2.06086e-006 -6.29635e-007 -4.2582e-006 -2.06086e-006 -6.29635e-007 -4.2582e-006 3.27302e-006 -8.24947e-007 -1.84e-007 -2.06086e-006 -6.29635e-007 -4.2582e-006 -2.38542e-015 0 -4.77083e-015 -2.06086e-006 -6.29635e-007 -4.2582e-006 3.27302e-006 -8.24947e-007 -1.84e-007 -2.06086e-006 -6.29635e-007 -4.2582e-006 -2.06086e-006 -6.29635e-007 -4.2582e-006 3.27302e-006 -8.24947e-007 -1.84e-007 -2.06086e-006 -6.29635e-007 -4.2582e-006 16.7264 -24.9136 29.3329 43.9718 -1.89129 6.04621 40.7003 29.443 19.8561 -54.5198 2.8191 -29.4824 -7.15625e-015 0 -1.59028e-015 -3.97569e-015 3.18055e-015 -3.18055e-015 -8.74653e-015 3.18055e-015 -1.59028e-015 -1.59028e-015 -3.18055e-015 3.18055e-015 -4.77083e-015 1.59028e-014 4.77083e-015 -5.56597e-015 3.18055e-015 -3.18055e-015 -3.18055e-015 1.59028e-014 3.18055e-015 -4.77083e-015 1.59028e-014 4.77083e-015 -5.56597e-015 3.18055e-015 -3.18055e-015 -3.18055e-015 1.59028e-014 3.18055e-015 -1.59028e-015 -3.18055e-015 3.18055e-015 -4.77083e-015 1.59028e-014 4.77083e-015 -5.56597e-015 3.18055e-015 -3.18055e-015 -3.18055e-015 1.59028e-014 3.18055e-015 -4.77083e-015 1.59028e-014 4.77083e-015 -5.56597e-015 3.18055e-015 -3.18055e-015 -3.18055e-015 1.59028e-014 3.18055e-015 8.1019 -21.3467 16.7005 35.7637 87.1706 -31.7056 -24.4892 59.4291 34.3942 -8.2326 -21.3448 -16.8466 -37.4773 87.0775 33.4543 25.4728 60.3165 -35.3135 
1.73992 48.89 7.01237 0 17.014 -0 -0.112191 5.82276 -0.417276 -0.182923 11.6463 -0.829504 -0.182922 11.6463 -0.829505 10.4593 -10.6333 1.73227 -9.90494e-007 -6.17264 1.06371e-007 -18.1145 -23.9145 -30.2496 -42.7837 -2.07599 -4.36977 -43.686 31.7166 -21.0271 59.9542 3.99076 34.0985 3.59747e-006 -2.29919e-006 -9.30671e-007 -5.6675e-007 -1.04832e-006 2.95617e-006 4.16067e-006 -8.05314e-007 -3.879e-006 -7.95139e-016 0 -0 3.59747e-006 -2.29919e-006 -9.30671e-007 -5.6675e-007 -1.04832e-006 2.95617e-006 4.16067e-006 -8.05314e-007 -3.879e-006 3.59747e-006 -2.29919e-006 -9.30671e-007 -5.6675e-007 -1.04832e-006 2.95617e-006 4.16067e-006 -8.05314e-007 -3.879e-006 -7.95139e-016 0 -0 3.59747e-006 -2.29919e-006 -9.30671e-007 -5.6675e-007 -1.04832e-006 2.95617e-006 4.16067e-006 -8.05314e-007 -3.879e-006 3.59747e-006 -2.29919e-006 -9.30671e-007 -5.6675e-007 -1.04832e-006 2.95617e-006 4.16067e-006 -8.05314e-007 -3.879e-006 16.8621 -24.6342 29.3829 43.9718 -1.89128 6.04621 40.3571 29.1937 19.6009 -54.0603 2.7764 -29.4831 -7.95139e-016 3.18055e-015 -3.18055e-015 3.37725e-006 -4.79917e-006 -3.1433e-006 -2.52639e-006 8.42115e-007 -2.06456e-006 -1.59028e-015 3.18055e-015 -1.59028e-015 -4.77083e-015 0 4.77083e-015 3.37725e-006 -4.79917e-006 -3.1433e-006 -2.52639e-006 8.42115e-007 -2.06456e-006 -4.77083e-015 0 4.77083e-015 3.37725e-006 -4.79917e-006 -3.1433e-006 -2.52639e-006 8.42115e-007 -2.06456e-006 -1.59028e-015 3.18055e-015 -1.59028e-015 -4.77083e-015 0 4.77083e-015 3.37725e-006 -4.79917e-006 -3.1433e-006 -2.52639e-006 8.42115e-007 -2.06456e-006 -4.77083e-015 0 4.77083e-015 3.37725e-006 -4.79917e-006 -3.1433e-006 -2.52639e-006 8.42115e-007 -2.06456e-006 8.22491 -22.3947 16.9166 40.2827 87.4056 -36.2068 -24.5151 59.4469 34.4266 -8.35567 -22.3926 -17.0633 -41.9791 87.3066 37.9382 25.5 60.3338 -35.3471 
